<?xml version="1.0" standalone="no"?>
<!DOCTYPE svg PUBLIC "-//W3C//DTD SVG 20010904//EN"
 "http://www.w3.org/TR/2001/REC-SVG-20010904/DTD/svg10.dtd">
<svg version="1.0" xmlns="http://www.w3.org/2000/svg"
 width="624.000000pt" height="624.000000pt" viewBox="0 0 624.000000 624.000000"
 preserveAspectRatio="xMidYMid meet">
<metadata>
Created by potrace 1.14, written by Peter Selinger 2001-2017
</metadata>
<g transform="translate(0.000000,624.000000) scale(0.100000,-0.100000)"
fill="#000000" stroke="none">
<path d="M2410 6183 c-7 -32 -19 -85 -27 -118 -8 -33 -16 -65 -17 -71 -1 -7
-7 -18 -13 -25 -6 -8 -9 -22 -8 -31 2 -10 -2 -16 -8 -15 -7 1 -11 -4 -10 -10
2 -7 -1 -13 -5 -13 -5 0 -9 -7 -9 -15 0 -8 5 -15 11 -15 6 0 4 -5 -4 -10 -11
-7 -11 -10 -2 -10 9 0 10 -5 2 -19 -7 -14 -6 -21 3 -24 9 -4 9 -8 -2 -15 -8
-6 -16 -18 -17 -28 -2 -10 -5 -29 -9 -43 -4 -21 -3 -23 5 -9 6 9 11 28 12 41
1 14 6 23 10 21 5 -3 5 -17 1 -32 -3 -15 -6 -32 -6 -39 0 -7 -8 -13 -18 -13
-14 0 -21 -14 -30 -61 -7 -33 -22 -76 -35 -94 -12 -18 -19 -36 -16 -40 4 -3
-1 -3 -10 0 -8 3 -22 -1 -31 -9 -13 -14 -16 -14 -21 0 -3 8 -11 12 -17 8 -6
-3 -14 -2 -18 4 -4 8 -16 3 -34 -12 -15 -13 -24 -26 -20 -29 3 -4 0 -13 -7
-22 -7 -8 -9 -15 -4 -15 5 0 4 -4 -1 -8 -6 -4 -16 -20 -23 -35 -7 -15 -17 -25
-22 -22 -6 4 -10 3 -9 -2 1 -4 0 -10 -1 -13 -6 -17 -5 -50 2 -50 5 0 6 -5 3
-11 -12 -18 -16 -199 -5 -199 5 0 10 6 10 13 0 6 6 24 14 39 8 14 19 42 25 61
7 19 20 45 31 57 l19 21 18 -20 c10 -12 30 -35 46 -51 15 -16 27 -36 27 -45 0
-10 5 -13 12 -9 6 4 9 3 5 -2 -3 -5 1 -20 9 -34 12 -22 13 -23 14 -5 1 11 4
29 6 40 3 11 6 29 8 40 2 11 6 31 9 45 12 44 14 99 5 102 -5 2 -2 12 6 23 12
16 16 17 30 6 9 -7 16 -22 16 -33 0 -16 5 -18 30 -14 17 2 28 0 25 -4 -3 -5 0
-12 6 -15 5 -4 8 -13 5 -20 -2 -7 2 -16 10 -19 9 -3 12 -11 9 -16 -4 -6 -1
-17 5 -25 7 -8 10 -15 7 -15 -3 0 1 -25 9 -56 19 -71 26 -134 14 -134 -4 0
-20 14 -34 30 -14 17 -32 30 -39 28 -7 -2 -25 11 -40 27 l-25 30 2 -41 c1 -22
6 -46 11 -54 6 -9 4 -11 -4 -5 -10 6 -11 3 -2 -14 7 -11 10 -21 7 -21 -2 0 6
-37 18 -82 12 -46 21 -96 20 -113 -1 -16 -2 -40 -3 -52 0 -13 -5 -23 -10 -23
-19 0 -78 68 -84 98 -6 32 8 82 24 82 10 0 -1 33 -13 41 -5 3 -11 12 -12 20
-2 8 -8 28 -15 44 -7 17 -19 46 -26 65 -27 72 -40 100 -45 100 -4 0 -7 -77 -7
-172 l-1 -172 -31 -28 c-17 -15 -31 -34 -31 -42 0 -20 22 -69 35 -78 5 -4 6
-8 1 -8 -5 0 -4 -6 2 -13 14 -16 32 -97 23 -97 -4 0 -6 -14 -5 -30 1 -17 -2
-33 -7 -36 -5 -3 -7 -9 -4 -14 3 -5 1 -11 -5 -15 -6 -4 -8 -11 -5 -16 4 -5 3
-15 -2 -21 -15 -25 -19 -101 -7 -141 5 -16 8 -15 30 10 13 15 24 24 24 20 0
-4 6 -2 14 5 8 7 12 16 10 20 -2 3 3 14 12 22 8 9 13 16 9 16 -3 0 3 10 15 22
19 20 24 33 21 51 0 4 4 7 10 7 5 0 7 5 4 10 -3 6 -1 10 5 10 6 0 9 4 5 9 -3
6 4 15 15 21 17 9 18 14 9 31 -6 12 -13 32 -15 46 -3 14 -6 31 -7 37 -1 6 5
11 13 11 8 0 15 -4 15 -10 0 -5 8 -21 18 -35 9 -13 17 -19 17 -12 0 23 20 1
37 -39 19 -47 33 -50 34 -6 0 17 4 41 9 52 7 15 9 8 8 -26 -1 -25 2 -51 6 -58
5 -7 -1 -22 -14 -36 -13 -14 -19 -29 -15 -36 5 -7 4 -10 -2 -6 -12 8 -20 -26
-29 -123 -5 -56 -11 -70 -41 -103 -50 -56 -58 -83 -33 -114 11 -14 20 -29 20
-32 0 -4 -20 -22 -44 -40 -23 -18 -61 -56 -82 -84 -21 -29 -41 -54 -44 -57 -3
-3 -36 -48 -72 -101 -62 -89 -98 -131 -98 -114 0 4 -6 2 -14 -4 -8 -6 -19 -10
-24 -9 -6 2 -18 -6 -27 -17 -9 -11 -14 -13 -10 -5 4 9 0 7 -9 -4 -9 -10 -20
-15 -27 -10 -9 5 -10 2 -6 -9 4 -12 -3 -19 -28 -28 -19 -7 -31 -17 -28 -21 3
-5 -3 -15 -12 -22 -10 -7 -18 -30 -21 -61 -4 -56 -37 -155 -66 -202 -25 -41
-68 -131 -98 -203 -27 -67 -26 -66 -44 -51 -10 8 -16 9 -21 1 -3 -5 -15 -10
-25 -10 -19 0 -27 -16 -34 -66 -3 -22 -36 -33 -36 -12 0 8 -14 24 -30 37 -17
12 -29 25 -26 29 2 4 0 17 -5 29 -6 17 -14 21 -36 17 -60 -11 -70 -26 -70
-102 0 -37 -4 -75 -9 -84 -14 -24 -62 -78 -69 -78 -3 0 -22 -12 -41 -26 -19
-15 -34 -24 -34 -21 0 3 -37 -8 -81 -24 -45 -16 -92 -29 -104 -29 -13 0 -38
16 -58 36 -49 51 -86 38 -77 -26 4 -31 52 -117 83 -150 19 -19 49 -62 67 -95
19 -33 42 -71 52 -85 9 -14 18 -45 19 -70 2 -32 9 -53 27 -72 33 -36 70 -37
77 -3 3 14 7 36 10 50 3 14 12 25 20 25 19 0 38 -37 32 -61 -3 -10 1 -23 9
-30 8 -6 14 -17 14 -23 0 -18 58 -129 73 -141 16 -12 47 -57 47 -67 0 -5 -12
-8 -26 -8 -18 0 -25 -4 -21 -14 3 -7 -1 -26 -9 -41 -13 -26 -12 -29 38 -87 29
-33 54 -55 56 -49 2 6 8 8 14 5 5 -3 12 3 15 15 5 20 6 20 34 4 16 -10 29 -20
29 -24 0 -4 19 -17 42 -29 77 -40 160 -9 172 63 5 29 11 38 24 35 9 -2 18 -12
21 -23 14 -78 125 -131 197 -95 24 13 51 18 80 15 71 -5 104 37 123 157 0 4
22 -5 49 -20 74 -44 91 -46 123 -11 16 17 34 45 40 63 9 25 17 32 31 28 21 -5
22 -15 7 -44 -8 -15 -8 -19 0 -14 6 4 11 0 11 -8 0 -9 5 -16 11 -16 6 0 9 -6
6 -14 -3 -8 1 -17 9 -20 8 -3 14 -12 14 -21 0 -8 5 -15 12 -15 6 0 8 -3 5 -7
-4 -3 0 -15 10 -25 9 -10 13 -18 8 -18 -4 0 -2 -7 5 -15 16 -19 50 -86 41 -80
-4 2 -8 -2 -8 -10 0 -8 4 -12 8 -9 13 7 30 -30 43 -93 1 -7 5 -15 9 -19 3 -4
-11 -16 -33 -26 -58 -29 -149 -125 -178 -186 -44 -96 -42 -111 26 -249 33 -68
34 -74 21 -105 -8 -19 -14 -71 -14 -123 -1 -80 -5 -100 -38 -181 -20 -50 -38
-105 -40 -122 -2 -17 -9 -37 -15 -44 -19 -24 -34 -105 -29 -160 5 -56 31 -119
65 -153 38 -39 140 -116 128 -96 -4 6 -2 11 3 11 6 0 11 -5 11 -11 0 -6 7 -9
15 -5 8 3 15 2 15 -2 0 -4 39 -8 87 -9 54 -2 92 -8 102 -16 10 -8 36 -13 66
-12 70 3 67 3 100 27 64 50 72 64 78 140 6 90 29 148 65 169 40 23 67 127 48
187 -4 12 -11 22 -16 22 -5 0 -7 8 -4 18 13 40 27 60 40 55 14 -5 74 35 74 49
0 5 -4 6 -10 3 -6 -3 -7 1 -4 9 3 9 10 14 14 11 10 -6 22 54 13 68 -4 6 -6 31
-4 55 1 24 -2 48 -7 55 -5 7 -12 39 -16 72 -8 86 -15 109 -54 189 -23 47 -36
89 -39 126 -13 187 -98 269 -278 268 -36 0 -66 3 -67 8 -1 5 -8 15 -15 22 -7
7 -13 20 -13 28 0 9 -7 22 -16 31 -8 9 -13 22 -10 29 3 8 1 14 -5 14 -6 0 -9
6 -7 12 3 7 -1 19 -9 26 -7 8 -11 18 -8 23 4 5 1 9 -4 9 -6 0 -11 15 -11 33 0
24 -3 28 -10 17 -8 -12 -10 -10 -10 8 0 13 -7 31 -16 40 -12 11 -13 17 -5 20
9 3 9 8 1 17 -8 10 10 9 74 -5 46 -10 102 -21 123 -25 21 -3 50 -8 63 -11 32
-6 72 -12 140 -20 30 -4 64 -8 75 -10 11 -1 34 -3 52 -3 22 -1 33 -7 38 -21 3
-11 12 -19 18 -17 7 1 11 -4 10 -10 -2 -7 2 -12 9 -10 7 1 17 -8 23 -20 5 -13
16 -23 24 -23 8 0 11 -3 8 -6 -4 -4 3 -15 15 -25 11 -11 18 -19 15 -19 -4 0 2
-9 14 -21 11 -11 18 -27 15 -35 -3 -8 -2 -12 3 -9 5 3 12 -4 16 -15 3 -11 11
-20 16 -20 6 0 -6 -17 -25 -37 -20 -21 -50 -64 -67 -97 -29 -55 -31 -64 -26
-135 5 -84 36 -171 84 -243 17 -24 33 -55 37 -71 3 -15 29 -72 56 -128 51
-105 61 -137 65 -223 1 -28 3 -56 4 -62 0 -6 13 -17 27 -24 31 -17 56 -62 52
-93 -2 -15 2 -21 11 -19 11 2 12 0 3 -10 -23 -28 5 -87 57 -121 23 -15 40 -31
37 -36 -3 -4 6 -19 20 -34 13 -15 27 -39 30 -54 3 -16 11 -35 18 -44 22 -31
90 -61 148 -67 52 -4 62 -2 100 24 62 41 106 55 158 48 95 -13 131 2 156 64 8
20 19 46 24 57 16 36 17 50 8 74 -5 14 -11 65 -12 115 -2 50 -9 105 -16 121
-6 17 -11 32 -11 35 0 13 -56 97 -83 124 -17 17 -30 35 -28 40 2 5 -1 12 -5
15 -5 3 -22 29 -37 56 -16 28 -39 61 -51 75 -13 14 -30 47 -39 74 -9 27 -28
74 -43 105 -14 31 -27 76 -28 101 -11 197 -62 323 -159 392 -94 66 -182 77
-323 39 -28 -8 -33 -6 -39 12 -7 21 -15 33 -46 67 -10 12 -15 27 -11 36 4 12
3 15 -5 10 -8 -4 -16 2 -21 17 -6 14 -16 27 -23 30 -8 3 -5 6 7 7 108 7 133
10 155 15 14 3 39 9 55 11 17 3 57 19 90 34 67 32 96 73 99 140 2 30 35 111
82 202 8 14 17 47 20 72 4 26 11 49 17 53 6 4 8 0 4 -10 -5 -13 -2 -14 15 -8
17 6 27 2 44 -19 25 -29 82 -50 159 -57 27 -3 52 -5 55 -6 16 -3 57 18 72 37
17 21 17 21 48 2 41 -24 140 -22 175 4 6 4 22 10 38 14 42 10 77 46 88 92 11
41 11 41 47 34 80 -14 144 9 231 87 37 32 43 44 43 77 0 21 -5 43 -10 48 -7 7
-6 18 4 33 12 18 12 25 3 31 -7 4 -9 3 -6 -2 3 -6 1 -16 -4 -24 -7 -11 -8 -8
-5 10 3 14 5 26 7 28 1 1 2 5 4 10 10 38 16 41 53 28 47 -17 71 -8 107 40 15
22 53 70 84 108 74 91 72 111 -13 226 -22 30 -40 57 -40 60 1 3 -7 13 -17 23
-21 19 -26 9 -7 -13 7 -8 4 -7 -7 2 -19 18 -19 18 2 37 11 11 24 17 28 13 4
-4 5 2 1 14 -6 18 -2 21 21 20 22 -1 32 7 50 39 12 22 21 44 20 50 -6 16 24
39 51 40 18 0 30 10 43 33 17 34 39 60 25 32 -4 -8 -1 -7 7 3 17 21 24 14 32
-34 3 -18 11 -37 17 -40 16 -10 57 31 51 50 -4 13 -3 13 5 2 8 -11 13 -10 30
7 11 11 23 18 26 15 3 -4 6 1 6 10 0 11 8 17 21 17 16 0 20 5 16 19 -3 15 -1
18 11 14 8 -4 13 -2 9 3 -3 6 3 29 14 53 10 24 19 52 19 63 0 25 -18 58 -31
58 -17 0 -33 22 -48 65 -7 22 -23 59 -34 83 -11 24 -21 62 -23 85 -1 23 -3 45
-3 49 -1 4 -15 14 -31 23 -33 17 -54 11 -93 -26 -11 -10 -34 -21 -51 -25 -17
-3 -42 -12 -56 -19 -20 -11 -35 -11 -69 -2 -39 11 -44 10 -57 -8 -8 -11 -20
-27 -27 -35 -7 -8 -13 -23 -13 -32 -3 -34 -4 -37 -23 -47 -14 -8 -25 -6 -45
10 -35 27 -33 49 8 90 80 82 49 106 -164 123 -30 3 -59 5 -65 6 -16 0 -61 43
-69 65 -4 11 -10 31 -12 45 -3 14 -9 26 -14 28 -4 2 -18 12 -31 23 -18 15 -22
28 -20 66 1 26 5 51 10 56 4 4 35 10 67 13 98 7 109 10 172 35 13 5 36 9 52 9
43 0 59 9 77 44 31 60 28 93 -14 139 -50 57 -78 77 -109 83 -14 3 -33 11 -41
19 -8 9 -18 13 -22 10 -5 -2 -26 17 -49 43 -35 42 -41 56 -45 108 -2 32 -7 68
-10 79 -11 41 -72 161 -99 196 -40 50 -32 64 72 124 140 80 317 192 361 228
19 15 39 32 46 37 7 6 14 10 17 10 6 0 177 171 196 197 22 29 42 64 38 68 -2
2 -53 -35 -113 -81 -61 -47 -130 -99 -155 -116 -25 -18 -46 -35 -48 -40 -2 -4
-10 -8 -17 -8 -8 0 -18 -6 -22 -13 -4 -7 -31 -27 -59 -45 -28 -18 -64 -44 -80
-57 -16 -14 -41 -31 -56 -38 -16 -6 -28 -15 -28 -18 0 -3 -29 -21 -65 -40 -36
-18 -65 -37 -65 -41 0 -5 -6 -8 -13 -8 -7 0 -29 -12 -50 -26 -26 -18 -42 -22
-50 -16 -13 11 -15 89 -3 167 4 28 7 53 7 57 -1 22 51 148 60 148 4 0 18 17
32 38 40 60 79 98 123 120 32 16 43 29 54 64 16 52 19 64 25 103 4 33 12 68
19 93 3 9 7 28 10 42 3 14 12 56 21 95 8 38 15 76 15 82 0 19 -420 19 -421 1
0 -7 -2 -20 -4 -28 -2 -8 -6 -31 -9 -50 -6 -32 -15 -59 -36 -100 -4 -8 -22
-19 -41 -25 -19 -5 -40 -14 -46 -18 -10 -6 -12 -1 -9 20 5 45 18 83 26 83 8 0
40 96 40 119 0 7 -32 11 -91 11 l-92 0 -49 -49 -49 -49 3 -62 c1 -34 6 -64 10
-66 16 -10 7 -43 -12 -49 -24 -8 -56 9 -71 37 -17 32 -12 99 9 128 20 28 32
54 38 88 4 20 1 22 -41 22 -40 0 -47 -3 -56 -27 -6 -16 -24 -57 -41 -91 -33
-71 -33 -112 3 -151 42 -45 6 -72 -116 -85 -33 -4 -73 -9 -90 -11 -69 -10 -87
30 -38 79 25 25 28 26 39 11 14 -19 16 -17 66 88 39 82 37 104 -7 73 -11 -7
-31 -16 -45 -19 -14 -4 -45 -24 -70 -46 -30 -28 -66 -47 -111 -61 -55 -16 -69
-25 -78 -48 -7 -16 -22 -38 -34 -50 -35 -35 -91 -82 -99 -82 -4 0 -19 -11 -34
-25 -15 -14 -35 -25 -45 -25 -21 0 -38 22 -21 28 7 2 12 10 12 18 0 8 4 14 10
14 11 0 52 42 46 48 -3 2 -25 -6 -51 -19 -35 -17 -48 -20 -57 -11 -9 9 -5 19
18 44 17 18 42 49 57 70 15 20 32 42 39 50 24 25 58 77 58 87 0 11 55 95 78
119 7 8 11 17 8 19 -9 9 -44 -8 -50 -25 -11 -33 -44 -75 -133 -171 -65 -69
-60 -64 -109 -109 -22 -20 -52 -53 -65 -72 -30 -45 -55 -69 -101 -100 -21 -14
-38 -28 -38 -32 0 -5 -9 -8 -20 -8 -33 0 -23 26 40 104 33 41 60 78 59 83 -3
17 2 32 14 45 16 17 47 65 47 74 0 4 -11 -3 -25 -16 -14 -13 -25 -27 -25 -30
0 -19 -203 -231 -240 -251 -14 -7 -27 -14 -30 -14 -3 0 -19 -8 -36 -18 -17 -9
-34 -13 -37 -10 -4 3 -9 -1 -12 -9 -9 -22 -93 -13 -172 18 -34 13 -66 24 -71
24 -10 0 -25 26 -26 45 -1 25 30 94 58 130 30 38 31 44 34 145 1 58 2 121 3
140 1 54 0 60 -15 60 -10 0 -19 -20 -26 -57z m1904 -215 c-4 -18 -8 -43 -9
-54 -4 -28 -36 -96 -43 -90 -2 3 -13 1 -23 -5 -16 -8 -19 -6 -19 13 -1 13 -3
40 -6 61 -7 44 11 70 61 92 44 20 47 18 39 -17z m-837 -182 c-2 -11 -8 -29
-12 -38 -6 -15 -2 -18 18 -18 43 0 43 -21 1 -56 -57 -48 -35 -51 43 -6 37 21
93 47 123 57 30 9 62 21 70 25 32 15 118 33 134 27 27 -11 -18 -75 -112 -160
-23 -21 -42 -35 -42 -31 0 4 -9 -3 -20 -16 -11 -13 -20 -25 -20 -27 0 -6 44 9
50 17 9 12 44 22 100 27 30 2 62 9 72 14 9 5 28 9 42 9 24 0 26 -4 26 -40 0
-43 -34 -90 -65 -90 -8 0 -15 -3 -15 -8 0 -4 -24 -16 -52 -26 -29 -10 -73 -28
-98 -40 -25 -13 -57 -26 -71 -29 -20 -5 -28 -17 -40 -54 -16 -54 -68 -98 -104
-89 -11 3 -45 -6 -75 -20 -116 -55 -123 -52 -60 21 22 25 40 50 40 54 0 15 66
79 98 95 17 9 32 24 32 34 0 9 4 24 10 32 7 12 12 11 30 -5 20 -18 21 -18 34
1 8 10 12 22 9 27 -2 4 0 13 6 20 10 13 -2 47 -13 36 -5 -5 -13 -39 -15 -64
-1 -5 -13 5 -27 23 -31 39 -40 40 -48 5 -12 -51 -28 -83 -42 -83 -8 0 -14 -4
-14 -8 0 -5 -47 -37 -105 -73 -57 -35 -105 -70 -105 -78 0 -21 -30 -51 -52
-51 -17 0 -17 2 -4 28 15 29 105 122 118 122 21 0 4 21 -27 34 -32 14 -49 46
-24 46 5 0 7 5 4 10 -10 16 37 109 92 181 63 83 66 89 54 89 -22 0 -241 -241
-241 -265 0 -4 -9 -19 -20 -35 -21 -30 -15 -51 6 -22 11 14 13 15 14 2 0 -17
-51 -102 -58 -96 -2 3 4 16 13 30 26 39 7 31 -32 -14 -19 -22 -39 -37 -44 -34
-5 3 -9 2 -8 -3 3 -18 -1 -33 -10 -33 -12 0 -2 63 11 71 5 3 9 9 9 13 -3 17 0
26 12 38 6 7 21 30 31 51 24 47 55 83 68 79 5 -1 7 2 3 8 -6 10 18 50 65 104
43 51 170 179 170 172 0 -4 12 4 27 18 30 28 47 25 40 -8z m793 -23 c0 -19
-35 -113 -42 -113 -12 0 3 104 16 112 14 10 26 10 26 1z m-302 -45 c-3 -29 -7
-33 -37 -36 -24 -3 -32 0 -28 10 2 7 11 12 18 10 8 -2 11 0 6 4 -8 8 21 44 35
44 5 0 8 -15 6 -32z m-978 -17 c0 -4 -10 -19 -23 -32 -12 -13 -29 -33 -37 -44
-15 -19 -15 -19 12 -2 38 24 41 21 10 -11 -15 -15 -31 -26 -36 -23 -5 2 -6 -1
-3 -6 4 -6 -3 -14 -16 -17 -12 -4 -38 -26 -57 -50 -19 -24 -42 -46 -50 -48 -8
-3 -25 -25 -37 -49 -21 -43 -28 -71 -39 -154 l-5 -40 25 27 25 28 -3 -28 c-2
-15 -4 -35 -5 -44 -1 -19 -41 -26 -41 -7 0 5 6 7 13 3 7 -4 9 -3 4 2 -5 5 -14
9 -20 9 -20 0 -74 115 -80 169 -3 39 -10 55 -31 71 -14 12 -28 30 -30 41 -2
10 -10 41 -16 67 -13 51 -11 61 11 52 19 -8 69 -79 69 -99 0 -9 8 -16 18 -16
14 0 80 38 117 68 6 4 33 23 60 42 28 19 52 38 53 43 2 4 9 7 16 7 6 0 23 11
36 24 25 24 60 34 60 17z m84 -29 c2 -4 -8 -30 -24 -57 -16 -28 -61 -113 -100
-190 -86 -170 -94 -179 -103 -129 -2 10 -7 31 -12 47 -4 17 -2 40 6 60 15 37
59 109 74 119 5 4 6 8 2 8 -25 0 65 110 109 133 35 18 41 19 48 9z m-774 -71
c0 -6 -5 -13 -10 -16 -6 -4 -8 -10 -5 -15 3 -5 1 -11 -3 -14 -8 -5 -9 13 -3
47 2 10 21 9 21 -2z m50 -81 c0 -10 6 -23 14 -27 7 -4 21 -24 31 -43 33 -67
87 -151 93 -146 3 4 1 16 -5 29 -44 94 -32 107 15 16 33 -63 39 -93 23 -103
-6 -4 -4 -22 4 -44 13 -37 33 -116 41 -162 3 -14 7 -33 10 -42 4 -12 0 -18
-11 -18 -19 0 -47 62 -39 85 4 10 -2 24 -15 36 -11 11 -21 23 -22 27 0 4 -2
14 -4 22 -2 8 -6 26 -9 40 -3 14 -10 26 -15 28 -6 2 -8 9 -5 16 3 8 -3 22 -13
31 -10 10 -17 21 -17 24 3 14 -17 52 -31 57 -8 3 -13 10 -10 14 7 11 -36 100
-47 100 -4 0 -8 7 -8 15 0 8 -4 15 -9 15 -4 0 -6 11 -3 25 5 29 32 34 32 5z
m1707 -6 c-3 -4 -2 -15 3 -24 5 -10 10 -33 11 -51 4 -63 53 -238 88 -310 28
-57 34 -94 19 -106 -33 -27 -169 -94 -178 -88 -12 7 31 45 51 45 7 0 9 3 6 7
-4 3 -2 12 4 20 21 24 -18 15 -70 -17 -27 -17 -53 -30 -58 -28 -13 3 -77 -13
-90 -24 -8 -6 -19 -2 -34 13 -16 16 -19 24 -10 27 11 4 11 6 0 12 -10 7 -10
12 2 26 8 9 12 18 9 20 -3 2 2 11 10 21 8 10 21 31 29 46 21 39 83 98 98 93 7
-3 15 0 19 6 4 7 3 8 -4 4 -7 -4 -12 -5 -12 -3 0 3 25 19 55 36 58 33 71 56
31 56 -13 0 -24 -4 -23 -9 1 -6 -7 -12 -18 -14 -11 -2 -28 -11 -38 -20 -36
-32 -28 -1 10 41 35 38 42 54 53 116 10 60 15 71 29 66 13 -5 14 -4 4 6 -16
16 -17 39 -1 39 6 0 8 -3 5 -6z m-1929 -120 c2 -21 -1 -33 -7 -30 -11 7 -12
66 -2 66 4 0 8 -16 9 -36z m1778 -8 c-3 -13 -23 -45 -44 -72 -22 -27 -49 -68
-61 -91 -14 -29 -40 -55 -79 -81 -34 -23 -57 -45 -57 -56 0 -23 -39 -55 -63
-52 -9 2 -18 13 -20 24 -4 23 -12 27 -27 13 -6 -5 -21 -12 -34 -16 -21 -6 -19
-2 15 36 65 71 74 79 87 79 7 0 23 13 37 29 13 17 28 27 33 24 6 -3 7 -2 4 4
-7 11 22 44 82 92 24 19 61 53 84 75 41 40 55 38 43 -8z m-1496 -482 c22 -51
24 -64 10 -64 -14 0 -40 55 -40 85 0 36 8 31 30 -21z m1862 13 c4 -9 15 -23
23 -31 19 -18 65 -105 65 -121 0 -23 -46 -22 -115 1 -37 12 -69 25 -72 27 -2
3 13 15 34 27 37 21 83 70 65 70 -5 0 -29 -7 -52 -15 -61 -22 -79 -20 -50 5
13 11 29 20 37 20 7 0 13 5 13 10 0 6 -5 10 -11 10 -5 0 -8 4 -5 9 9 14 58 5
68 -12z m-698 -3 c19 -19 12 -35 -38 -83 -49 -47 -47 -61 5 -50 22 5 59 19 81
30 22 11 49 18 61 16 l22 -4 -23 -8 c-15 -5 -21 -13 -17 -24 3 -12 -8 -23 -40
-41 -69 -38 -66 -72 3 -36 15 8 36 16 47 18 11 1 28 10 37 18 37 32 129 73
140 62 15 -15 2 -42 -20 -42 -21 0 -45 -23 -48 -47 -3 -16 -43 -65 -79 -95
-14 -12 -17 -20 -9 -28 8 -8 23 -5 55 8 25 11 60 23 79 27 19 4 44 14 55 21
11 8 27 14 37 14 9 0 33 9 52 21 35 21 63 18 49 -4 -4 -7 -6 -20 -5 -29 2 -10
-1 -18 -7 -18 -5 0 -16 -6 -23 -13 -7 -7 -38 -31 -68 -55 -30 -23 -59 -45 -65
-50 -31 -24 -74 -52 -81 -52 -4 0 -5 3 -1 6 9 10 -35 53 -86 85 -27 17 -54 35
-60 40 -7 6 -30 20 -52 33 -42 23 -47 38 -33 91 5 19 4 33 -4 40 -8 7 -9 7 -4
-2 7 -12 -12 -35 -49 -59 -20 -13 -27 -13 -66 2 -23 10 -38 19 -31 22 6 2 9 9
6 15 -2 7 11 28 31 47 19 19 35 39 35 45 0 6 8 20 19 31 10 11 24 30 30 42 14
26 43 29 65 6z m-1091 -270 c9 -17 13 -41 10 -52 -3 -14 -1 -22 7 -22 10 0 10
-3 0 -15 -7 -8 -24 -15 -38 -15 -25 0 -25 0 -6 16 10 8 13 12 5 8 -10 -5 -11
-1 -6 15 13 41 8 78 -14 100 -11 11 -21 26 -21 32 0 17 44 -31 63 -67z m1700
42 c45 -21 158 -58 182 -60 58 -6 66 -14 61 -69 -3 -29 -6 -76 -7 -105 -2 -42
-7 -55 -25 -67 -13 -8 -25 -11 -28 -6 -9 14 -53 4 -93 -21 -21 -12 -40 -22
-43 -21 -6 1 -97 13 -119 15 -8 1 -26 13 -40 28 -32 32 -55 42 -86 34 -18 -4
-24 -14 -27 -46 -2 -22 0 -41 4 -44 3 -2 7 -12 7 -22 -1 -35 13 -86 27 -99 8
-8 14 -20 14 -26 0 -14 28 -40 54 -50 9 -4 14 -11 11 -17 -8 -12 16 -80 28
-80 4 0 6 -4 3 -9 -4 -5 -3 -11 1 -13 5 -1 20 -19 34 -38 28 -37 40 -87 45
-185 1 -33 6 -82 9 -110 8 -59 8 -85 0 -93 -8 -8 -95 40 -96 53 0 5 0 44 1 85
1 73 0 76 -32 107 -56 54 -102 71 -159 60 -40 -8 -53 -7 -73 7 -29 18 -26 39
10 71 42 39 57 73 50 114 -5 35 -50 126 -91 183 -16 23 -21 68 -7 68 4 0 8 10
9 23 1 12 24 43 51 69 27 26 47 50 44 53 -3 3 2 5 11 5 10 0 17 5 17 10 0 6 5
10 12 10 6 0 19 6 27 14 9 8 36 17 60 21 48 7 97 38 107 67 3 10 3 37 -1 58
-8 45 -1 48 48 26z m369 -40 c36 -37 47 -61 54 -119 6 -54 6 -55 -31 -80 -57
-39 -63 -31 -67 96 -2 62 -2 115 0 120 6 13 21 8 44 -17z m122 -76 l7 -35 -16
34 c-17 37 -22 79 -6 51 5 -8 12 -31 15 -50z m100 -22 c18 -30 18 -32 1 -44
-10 -7 -21 -11 -26 -9 -4 3 -10 1 -14 -5 -4 -6 -11 -8 -16 -4 -5 3 -6 11 -2
17 4 6 8 25 9 42 2 36 1 35 17 35 7 0 21 -14 31 -32z m-2204 -45 c0 -14 -27
-17 -54 -7 -21 8 -20 31 1 43 20 11 53 -12 53 -36z m2330 -20 c-1 -32 -26 -53
-76 -62 -27 -6 -68 -17 -91 -25 -50 -17 -141 -32 -130 -20 10 11 116 44 142
44 11 0 47 18 80 40 69 45 75 47 75 23z m-560 -163 c-6 -11 -14 -20 -19 -20
-4 0 -36 -27 -70 -60 -35 -33 -67 -60 -72 -60 -24 0 -117 63 -129 88 -8 15
-16 31 -18 35 -2 5 11 1 29 -9 38 -20 69 -26 69 -13 0 5 33 9 73 10 39 0 81 4
92 9 11 5 16 9 11 9 -14 1 15 31 31 31 11 0 11 -4 3 -20z m64 -302 c-4 -68 -8
-134 -9 -148 -1 -14 -3 -35 -3 -48 -1 -16 -6 -21 -14 -16 -10 6 -10 4 -3 -7 6
-8 8 -38 4 -69 -6 -54 -10 -49 -14 20 -4 72 -18 147 -41 215 -13 39 -24 77
-24 85 0 20 48 60 65 54 7 -3 18 4 25 15 6 12 13 21 16 21 3 0 2 -55 -2 -122z
m171 57 c34 -50 43 -57 102 -75 36 -11 76 -20 90 -20 17 0 22 -4 17 -12 -6
-10 -4 -10 7 -3 8 6 32 8 54 5 l39 -5 -24 -16 c-14 -8 -33 -18 -42 -22 -24 -9
-23 -48 2 -77 17 -20 50 -111 50 -139 0 -15 39 -29 62 -23 10 2 24 14 30 26 6
11 16 26 22 32 27 29 46 55 46 63 0 26 30 37 95 35 45 -1 68 2 71 11 3 7 23
18 44 25 53 17 55 15 113 -125 37 -90 40 -99 39 -106 -1 -4 -2 -23 -4 -43 -2
-41 -47 -141 -63 -141 -5 0 -12 29 -15 63 -4 48 -10 67 -25 78 -18 14 -22 13
-43 -11 -12 -15 -28 -47 -34 -71 -9 -31 -17 -44 -30 -44 -10 0 -27 -9 -38 -20
-19 -19 -20 -19 -67 45 -27 35 -59 70 -73 78 -14 9 -36 25 -49 36 -13 12 -36
21 -50 21 -14 0 -35 1 -46 1 -35 1 -92 -29 -131 -68 -22 -23 -34 -30 -29 -18
5 11 10 56 11 100 1 44 5 88 8 98 3 9 8 23 10 31 5 15 -20 59 -53 93 -11 12
-21 27 -21 33 0 6 -4 9 -8 6 -5 -3 -18 5 -29 18 -12 13 -25 25 -29 27 -5 2
-21 18 -35 35 -19 23 -26 44 -28 83 -1 28 2 51 7 51 5 0 26 -25 47 -55z
m-3175 -1185 c11 -11 20 -24 20 -30 0 -5 7 -10 15 -10 19 0 19 1 -3 -41 -25
-50 -73 -110 -82 -104 -5 3 -12 0 -16 -6 -5 -8 -3 -9 6 -4 8 5 11 3 8 -6 -3
-8 -11 -13 -18 -11 -13 3 -128 -37 -135 -47 -2 -4 -5 -47 -6 -96 -1 -50 -6
-98 -11 -107 -20 -39 -54 -10 -77 67 -20 66 -31 81 -58 83 -15 1 -28 4 -31 7
-10 9 30 36 115 78 138 68 154 82 189 172 4 11 8 22 8 25 1 3 7 15 14 28 16
27 36 28 62 2z m-112 -427 c7 -2 12 7 12 20 0 16 3 18 9 8 14 -21 -23 -136
-40 -125 -5 3 -6 -1 -3 -9 2 -7 0 -27 -7 -43 -11 -28 -11 -28 -20 -7 -14 37
-13 95 2 152 12 50 14 52 24 30 5 -13 16 -25 23 -26z m120 -563 c-3 -17 0 -30
6 -30 8 -1 -61 -40 -69 -40 -1 0 -2 6 -2 13 0 6 -2 19 -4 27 -3 9 2 14 11 11
31 -7 45 -6 46 7 1 6 2 19 3 27 0 8 4 15 7 15 4 0 4 -13 2 -30z"/>
</g>
</svg>
